<svg id="visual" viewBox="0 0 900 600" width="900" height="600" xmlns="http://www.w3.org/2000/svg" xmlns:xlink="http://www.w3.org/1999/xlink" version="1.1"><path d="M0 103L13.7 96C27.3 89 54.7 75 82 69C109.3 63 136.7 65 163.8 63C191 61 218 55 245.2 55C272.3 55 299.7 61 327 66C354.3 71 381.7 75 409 79C436.3 83 463.7 87 491 91C518.3 95 545.7 99 573 90C600.3 81 627.7 59 654.8 49C682 39 709 41 736.2 43C763.3 45 790.7 47 818 55C845.3 63 872.7 77 886.3 84L900 91L900 0L886.3 0C872.7 0 845.3 0 818 0C790.7 0 763.3 0 736.2 0C709 0 682 0 654.8 0C627.7 0 600.3 0 573 0C545.7 0 518.3 0 491 0C463.7 0 436.3 0 409 0C381.7 0 354.3 0 327 0C299.7 0 272.3 0 245.2 0C218 0 191 0 163.8 0C136.7 0 109.3 0 82 0C54.7 0 27.3 0 13.7 0L0 0Z" fill="#f2b755"></path><path d="M0 139L13.7 145C27.3 151 54.7 163 82 162C109.3 161 136.7 147 163.8 142C191 137 218 141 245.2 145C272.3 149 299.7 153 327 161C354.3 169 381.7 181 409 184C436.3 187 463.7 181 491 178C518.3 175 545.7 175 573 164C600.3 153 627.7 131 654.8 131C682 131 709 153 736.2 150C763.3 147 790.7 119 818 116C845.3 113 872.7 135 886.3 146L900 157L900 89L886.3 82C872.7 75 845.3 61 818 53C790.7 45 763.3 43 736.2 41C709 39 682 37 654.8 47C627.7 57 600.3 79 573 88C545.7 97 518.3 93 491 89C463.7 85 436.3 81 409 77C381.7 73 354.3 69 327 64C299.7 59 272.3 53 245.2 53C218 53 191 59 163.8 61C136.7 63 109.3 61 82 67C54.7 73 27.3 87 13.7 94L0 101Z" fill="#ba8e49"></path><path d="M0 283L13.7 275C27.3 267 54.7 251 82 239C109.3 227 136.7 219 163.8 230C191 241 218 271 245.2 287C272.3 303 299.7 305 327 299C354.3 293 381.7 279 409 276C436.3 273 463.7 281 491 286C518.3 291 545.7 293 573 288C600.3 283 627.7 271 654.8 272C682 273 709 287 736.2 271C763.3 255 790.7 209 818 211C845.3 213 872.7 263 886.3 288L900 313L900 155L886.3 144C872.7 133 845.3 111 818 114C790.7 117 763.3 145 736.2 148C709 151 682 129 654.8 129C627.7 129 600.3 151 573 162C545.7 173 518.3 173 491 176C463.7 179 436.3 185 409 182C381.7 179 354.3 167 327 159C299.7 151 272.3 147 245.2 143C218 139 191 135 163.8 140C136.7 145 109.3 159 82 160C54.7 161 27.3 149 13.7 143L0 137Z" fill="#84673d"></path><path d="M0 523L13.7 521C27.3 519 54.7 515 82 508C109.3 501 136.7 491 163.8 476C191 461 218 441 245.2 446C272.3 451 299.7 481 327 476C354.3 471 381.7 431 409 415C436.3 399 463.7 407 491 427C518.3 447 545.7 479 573 494C600.3 509 627.7 507 654.8 510C682 513 709 521 736.2 511C763.3 501 790.7 473 818 469C845.3 465 872.7 485 886.3 495L900 505L900 311L886.3 286C872.7 261 845.3 211 818 209C790.7 207 763.3 253 736.2 269C709 285 682 271 654.8 270C627.7 269 600.3 281 573 286C545.7 291 518.3 289 491 284C463.7 279 436.3 271 409 274C381.7 277 354.3 291 327 297C299.7 303 272.3 301 245.2 285C218 269 191 239 163.8 228C136.7 217 109.3 225 82 237C54.7 249 27.3 265 13.7 273L0 281Z" fill="#514330"></path><path d="M0 601L13.7 601C27.3 601 54.7 601 82 601C109.3 601 136.7 601 163.8 601C191 601 218 601 245.2 601C272.3 601 299.7 601 327 601C354.3 601 381.7 601 409 601C436.3 601 463.7 601 491 601C518.3 601 545.7 601 573 601C600.3 601 627.7 601 654.8 601C682 601 709 601 736.2 601C763.3 601 790.7 601 818 601C845.3 601 872.7 601 886.3 601L900 601L900 503L886.3 493C872.7 483 845.3 463 818 467C790.7 471 763.3 499 736.2 509C709 519 682 511 654.8 508C627.7 505 600.3 507 573 492C545.7 477 518.3 445 491 425C463.7 405 436.3 397 409 413C381.7 429 354.3 469 327 474C299.7 479 272.3 449 245.2 444C218 439 191 459 163.8 474C136.7 489 109.3 499 82 506C54.7 513 27.3 517 13.7 519L0 521Z" fill="#222222"></path></svg>